#N canvas 827 239 734 565 12;
#X obj 837 250 bng 25 250 50 0 empty empty empty 17 7 0 10 #191919 #e1e1e1 #e1e1e1;
#X obj 637 365 delay 1000;
#X obj 778 526 tgl 25 0 empty empty empty 17 7 0 10 #191919 #e1e1e1 #e1e1e1 0 1;
#X obj 445 426 / 127;
#X obj 682 619 int;
#X obj 729 575 * 127;
#X obj 643 674 - 127;
#X obj 551 702 * -1;
#X obj 678 473 line;
#X msg 615 423 \$1 1000;
#X msg 695 421 1 4000;
#X obj 594 788 clip 0 127;
#X obj 433 353 tgl 25 0 empty empty empty 17 7 0 10 #191919 #ffffff #ffffff 0 1;
#X obj 542 881 ctlout 11 1;
#X obj 228 188 ctlin 1 11;
#X connect 0 0 1 0;
#X connect 1 0 10 0;
#X connect 2 0 5 0;
#X connect 3 0 9 0;
#X connect 4 0 6 0 32.................a....f2++++F....38+++CE....;
#X connect 5 0 4 0 32.................J....T8+++uB....U++++OA....;
#X connect 6 0 7 0;
#X connect 7 0 11 0;
#X connect 8 0 2 0;
#X connect 9 0 8 0;
#X connect 10 0 8 0;
#X connect 11 0 13 0;
#X connect 12 0 3 0;
#X connect 14 0 0 0 32.................X....Dl....F....gI...rB....;
#X connect 14 0 12 0;
