#N canvas 576 155 1081 520 10;
#X obj 193 236 noise~;
#X obj 208 300 bp~ 4000 10;
#X obj 193 327 *~;
#X obj 208 354 lop~ 500;
#X obj 193 381 *~;
#X obj 158 487 *~;
#X obj 158 290 *~;
#X obj 158 317 +~;
#X obj 193 408 lop~ 500;
#X obj 193 487 *~ 0.5;
#X obj 243 504 +~;
#X obj 158 531 +~;
#X obj 297 499 hip~;
#X obj 282 526 +~;
#X obj 282 580 *~;
#X obj 158 553 *~;
#X obj 158 575 clip~ -1 1;
#X obj 158 597 +~;
#X obj 190 536 r~ drp-gan;
#X obj 321 439 r hip;
#X obj 253 332 r drp-amt;
#X obj 238 386 r drp-sze;
#X obj 297 553 r~ wnd;
#X obj 173 263 r~ crk;
#X obj 239 273 r sze;
#X obj 301 283 r int;
#X obj 413 236 noise~;
#X obj 500 351 bp~ 4000 10;
#X obj 413 327 *~;
#X obj 428 354 lop~ 500;
#X obj 413 381 *~;
#X obj 378 487 *~;
#X obj 378 290 *~;
#X obj 378 317 +~;
#X obj 413 408 lop~ 500;
#X obj 413 487 *~ 0.5;
#X obj 378 531 +~;
#X obj 589 550 hip~;
#X obj 574 577 +~;
#X obj 574 631 *~;
#X obj 378 553 *~;
#X obj 378 575 clip~ -1 1;
#X obj 378 597 +~;
#X obj 410 536 r~ drp-gan;
#X obj 610 528 r hip;
#X obj 545 383 r drp-amt;
#X obj 530 437 r drp-sze;
#X obj 589 604 r~ wnd;
#X obj 393 263 r~ crk;
#X obj 459 273 r sze;
#X obj 593 334 r int;
#X obj 702 342 / 127;
#X msg 702 386 \$1 20;
#X obj 702 408 line~;
#X obj 702 430 s~ crk;
#X obj 867 342 / 127;
#X floatatom 702 364 0 0 1 0 - - - 0;
#X msg 867 386 2 \$1;
#X obj 867 408 pow;
#X obj 867 364 * 14;
#X floatatom 867 430 0 0 0 1 Hz - - 0;
#X obj 867 452 s hip;
#X obj 702 613 / 127;
#X msg 702 679 \$1 20;
#X obj 702 701 line~;
#X floatatom 702 657 0 0 1 0 - - - 0;
#X obj 702 723 s~ wnd;
#X obj 855 619 / 127;
#X msg 855 663 \$1 20;
#X obj 855 685 line~;
#X floatatom 860 641 0 0 1 0 - - - 0;
#X obj 855 707 s~ drp-gan;
#X obj 158 679 clip~ -1 1;
#X obj 370 679 clip~ -1 1;
#X obj 1023 342 / 127;
#X obj 1035 604 / 127;
#X msg 1035 648 2 \$1;
#X obj 1035 670 pow;
#X obj 1214 619 / 127;
#X msg 1214 663 2 \$1;
#X obj 1214 685 pow;
#X msg 1220 383 2 \$1;
#X obj 1220 405 pow;
#X obj 1220 427 * 0.7;
#X floatatom 1220 449 0 0 0 0 - - - 0;
#X obj 1220 471 s int;
#X obj 1220 361 * 5;
#X msg 1220 317 1 \$1;
#X obj 1220 339 -;
#X obj 1035 717 * 250;
#X obj 1214 707 * 250;
#X floatatom 1035 739 0 0 0 1 - - - 0;
#X obj 1035 626 * 6;
#X obj 1035 761 s drp-sze;
#X obj 1214 641 * 6;
#X floatatom 1214 729 0 0 0 1 - - - 0;
#X obj 1214 751 s sze;
#X msg 1023 386 2 \$1;
#X obj 1023 408 pow;
#X obj 1023 430 * 250;
#X obj 1023 364 * 6;
#X floatatom 1023 452 0 0 0 1 - - - 0;
#X obj 1023 474 s drp-amt;
#X obj 158 619 hip~ 3;
#X obj 378 619 hip~ 3;
#X obj 158 641 *~ 0.7;
#X obj 378 641 *~ 0.7;
#X obj 702 635 pow 4;
#X obj 210 733 *~ 0.7;
#X obj 297 795 dac~;
#X obj 702 273 r cracles hv.param 1 127;
#X obj 867 273 r hipass hv.param 1 127;
#X obj 1023 273 r dropamount hv.param 1 127;
#X obj 1220 273 r intensity hv.param 1 127;
#X obj 702 536 r wind hv.param 1 127;
#X obj 855 536 r dropgain hv.param 1 127;
#X obj 1035 536 r dropsize hv.param 1 127;
#X obj 1214 536 r size hv.param 1 127;
#X obj 370 733 *~ 0.7;
#X connect 0 0 1 0;
#X connect 0 0 2 0;
#X connect 0 0 6 0;
#X connect 1 0 2 1;
#X connect 1 0 7 1;
#X connect 1 0 12 0;
#X connect 2 0 3 0;
#X connect 2 0 4 0;
#X connect 3 0 4 1;
#X connect 4 0 8 0;
#X connect 5 0 11 0;
#X connect 6 0 7 0;
#X connect 7 0 5 0;
#X connect 8 0 9 0;
#X connect 8 0 13 0;
#X connect 9 0 10 0;
#X connect 10 0 11 1;
#X connect 10 0 36 1;
#X connect 11 0 15 0;
#X connect 12 0 13 1;
#X connect 13 0 14 0;
#X connect 14 0 17 1;
#X connect 15 0 16 0;
#X connect 16 0 17 0;
#X connect 17 0 103 0;
#X connect 18 0 15 1;
#X connect 19 0 12 1;
#X connect 20 0 3 1;
#X connect 21 0 8 1;
#X connect 22 0 14 1;
#X connect 23 0 6 1;
#X connect 24 0 1 1;
#X connect 25 0 1 2;
#X connect 26 0 27 0;
#X connect 26 0 28 0;
#X connect 26 0 32 0;
#X connect 27 0 28 1;
#X connect 27 0 33 1;
#X connect 27 0 37 0;
#X connect 28 0 29 0;
#X connect 28 0 30 0;
#X connect 29 0 30 1;
#X connect 30 0 34 0;
#X connect 31 0 36 0;
#X connect 32 0 33 0;
#X connect 33 0 31 0;
#X connect 34 0 35 0;
#X connect 34 0 38 0;
#X connect 35 0 10 1;
#X connect 36 0 40 0;
#X connect 37 0 38 1;
#X connect 38 0 39 0;
#X connect 39 0 42 1;
#X connect 40 0 41 0;
#X connect 41 0 42 0;
#X connect 42 0 104 0;
#X connect 43 0 40 1;
#X connect 44 0 37 1;
#X connect 45 0 29 1;
#X connect 46 0 34 1;
#X connect 47 0 39 1;
#X connect 48 0 32 1;
#X connect 49 0 27 1;
#X connect 50 0 27 2;
#X connect 51 0 56 0;
#X connect 52 0 53 0;
#X connect 53 0 54 0;
#X connect 55 0 59 0;
#X connect 56 0 52 0;
#X connect 57 0 58 0;
#X connect 58 0 60 0;
#X connect 59 0 57 0;
#X connect 60 0 61 0;
#X connect 62 0 107 0;
#X connect 63 0 64 0;
#X connect 64 0 66 0;
#X connect 65 0 63 0;
#X connect 67 0 70 0;
#X connect 68 0 69 0;
#X connect 69 0 71 0;
#X connect 70 0 68 0;
#X connect 72 0 108 0;
#X connect 73 0 118 0;
#X connect 74 0 100 0;
#X connect 74 0 100 1;
#X connect 75 0 92 0;
#X connect 76 0 77 0;
#X connect 77 0 89 0;
#X connect 78 0 94 0;
#X connect 79 0 80 0;
#X connect 80 0 90 0;
#X connect 81 0 82 0;
#X connect 82 0 83 0;
#X connect 83 0 84 0;
#X connect 84 0 85 0;
#X connect 86 0 81 0;
#X connect 87 0 88 0;
#X connect 88 0 86 0;
#X connect 89 0 91 0;
#X connect 90 0 95 0;
#X connect 91 0 93 0;
#X connect 92 0 76 0;
#X connect 94 0 79 0;
#X connect 95 0 96 0;
#X connect 97 0 98 0;
#X connect 98 0 99 0;
#X connect 99 0 101 0;
#X connect 100 0 97 0;
#X connect 101 0 102 0;
#X connect 103 0 105 0;
#X connect 104 0 106 0;
#X connect 105 0 72 0;
#X connect 106 0 73 0;
#X connect 107 0 65 0;
#X connect 108 0 109 0;
#X connect 110 0 51 0;
#X connect 111 0 55 0;
#X connect 112 0 74 0;
#X connect 113 0 87 0;
#X connect 114 0 62 0;
#X connect 115 0 67 0;
#X connect 116 0 75 0;
#X connect 117 0 78 0;
#X connect 118 0 109 1;
