#N canvas 827 239 734 565 12;
#X obj 1029 496 notein;
#X obj 1030 715 pack f f f;
#X obj 972 956 osc~;
#X obj 972 911 mtof;
#X obj 1027 1222 dac~;
#X obj 860 956 osc~;
#X obj 860 911 mtof;
#X obj 872 1024 *~;
#X obj 1108 956 osc~;
#X obj 1108 911 mtof;
#X obj 1108 833 unpack f f;
#X obj 1163 911 / 127;
#X obj 1113 1024 *~;
#X obj 885 833 unpack f f;
#X obj 908 911 / 127;
#X obj 995 833 unpack f f;
#X obj 1027 911 / 127;
#X obj 1004 1024 *~;
#X obj 1027 1176 *~ 0.25;
#X obj 920 1081 +~;
#X obj 1163 1081 +~;
#X obj 1220 956 osc~;
#X obj 1220 911 mtof;
#X obj 1210 833 unpack f f;
#X obj 1276 911 / 127;
#X obj 1220 1024 *~;
#X obj 1030 759 route 1 2 3;
#X obj 1029 587 poly 4 0;
#X connect 0 0 27 0;
#X connect 0 1 27 1;
#X connect 1 0 26 0;
#X connect 2 0 17 0;
#X connect 3 0 2 0;
#X connect 5 0 7 0;
#X connect 6 0 5 0;
#X connect 7 0 19 0;
#X connect 8 0 12 0;
#X connect 9 0 8 0;
#X connect 10 0 9 0;
#X connect 10 1 11 0;
#X connect 11 0 12 1;
#X connect 12 0 20 0;
#X connect 13 0 6 0;
#X connect 13 1 14 0;
#X connect 14 0 7 1;
#X connect 15 0 3 0;
#X connect 15 1 16 0;
#X connect 16 0 17 1;
#X connect 17 0 19 0;
#X connect 18 0 4 0;
#X connect 18 0 4 1;
#X connect 19 0 18 0;
#X connect 20 0 18 0;
#X connect 21 0 25 0;
#X connect 22 0 21 0;
#X connect 23 0 22 0;
#X connect 23 1 24 0;
#X connect 24 0 25 1;
#X connect 25 0 20 1;
#X connect 26 0 13 0;
#X connect 26 1 15 0;
#X connect 26 2 10 0;
#X connect 26 3 23 0;
#X connect 27 0 1 0;
#X connect 27 1 1 1;
#X connect 27 2 1 2;
