#N canvas 827 239 734 565 12;
#X obj 225 354 osc~;
#X obj 237 511 dac~;
#X obj 220 183 notein;
#X obj 236 268 mtof;
#X obj 230 421 *~ 0.5;
#X connect 0 0 4 0;
#X connect 2 0 3 0;
#X connect 3 0 0 0;
#X connect 4 0 1 0;
