#N canvas 827 239 734 565 12;
#X obj 291 457 ctlout 14 10;
#X obj 477 301 noteout 10;
#X msg 406 271 60;
#X obj 90 481 / 127;
#X obj 60 220 mtof;
#X obj 445 474 ctlout 34 10;
#X obj 681 348 noteout 10;
#X msg 620 335 62;
#X obj 214 96 notein;
#X connect 2 0 1 0;
#X connect 3 0 0 0;
#X connect 4 0 3 0;
#X connect 7 0 6 0;
#X connect 8 0 4 0;
#X connect 8 0 5 0;
#X connect 8 1 1 1;
#X connect 8 1 2 0;
#X connect 8 1 6 1;
#X connect 8 1 7 0;
