#N canvas 827 239 734 565 12;
#X obj 412 465 dac~;
#X obj 342 122 mtof;
#X obj 376 337 *~ 0.5;
#X obj 358 239 osc~;
#X obj 350 74 r freq hv.param 1 127;
#X connect 1 0 3 0;
#X connect 2 0 0 0;
#X connect 2 0 0 1;
#X connect 3 0 2 0;
#X connect 4 0 1 0;
