#N canvas 827 239 734 565 12;
#X obj 153 504 mtof;
#X obj 384 574 mtof;
#X obj 629 1082 dac~;
#X obj 229 189 r NOTE1;
#X obj 334 199 r NOTE2;
#X obj 143 350 unpack f f f;
#X obj 335 353 unpack f f f;
#X obj 384 634 osc~;
#X obj 245 624 *~;
#X obj 405 750 *~;
#X obj 487 461 * 0.007874;
#X obj 254 446 * 0.007874;
#X obj 620 590 mtof;
#X obj 571 369 unpack f f f;
#X obj 620 650 osc~;
#X obj 641 766 *~;
#X obj 723 477 * 0.007874;
#X obj 570 215 r NOTE3;
#X obj 881 539 mtof;
#X obj 832 318 unpack f f f;
#X obj 881 599 osc~;
#X obj 902 715 *~;
#X obj 984 426 * 0.007874;
#X obj 831 164 r NOTE4;
#X obj 245 790 *~ 0.25;
#X obj 433 821 *~ 0.25;
#X obj 582 803 *~ 0.25;
#X obj 812 833 *~ 0.25;
#X obj 553 904 +~;
#X obj 700 897 +~;
#X obj 113 567 osc~;
#X obj 637 956 *~ 0.5;
#X obj 245 519 line~ 50;
#X obj 481 590 line~ 50;
#X obj 726 632 line~ 50;
#X obj 982 577 line~ 50;
#X obj 666 1002 clip~ -0.5 0.5;
#X connect 0 0 30 0;
#X connect 1 0 7 0;
#X connect 3 0 5 0;
#X connect 4 0 6 0;
#X connect 5 0 0 0;
#X connect 5 1 11 0;
#X connect 6 0 1 0;
#X connect 6 1 10 0;
#X connect 7 0 9 0;
#X connect 8 0 24 0;
#X connect 9 0 25 0;
#X connect 10 0 33 0;
#X connect 11 0 32 0;
#X connect 12 0 14 0;
#X connect 13 0 12 0;
#X connect 13 1 16 0;
#X connect 14 0 15 0;
#X connect 15 0 26 0;
#X connect 16 0 34 0;
#X connect 17 0 13 0;
#X connect 18 0 20 0;
#X connect 19 0 18 0;
#X connect 19 1 22 0;
#X connect 20 0 21 0;
#X connect 21 0 27 0;
#X connect 22 0 35 0;
#X connect 23 0 19 0;
#X connect 24 0 28 0;
#X connect 25 0 28 1;
#X connect 26 0 29 0;
#X connect 27 0 29 1;
#X connect 28 0 31 0;
#X connect 29 0 31 0;
#X connect 30 0 8 0;
#X connect 31 0 36 0;
#X connect 32 0 8 1;
#X connect 33 0 9 1;
#X connect 34 0 15 1;
#X connect 35 0 21 1;
#X connect 36 0 2 0;
#X connect 36 0 2 1;
