#N canvas 827 239 734 565 12;
#X obj 225 354 osc~;
#X obj 237 511 dac~;
#X obj 220 183 notein;
#X obj 236 268 mtof;
#X obj 370 313 ctlin 7;
#X obj 352 389 / 127;
#X obj 230 421 *~;
#X connect 0 0 6 0;
#X connect 2 0 3 0;
#X connect 3 0 0 0;
#X connect 4 0 5 0;
#X connect 5 0 6 1;
#X connect 6 0 1 0;
#X connect 6 0 1 1;
