#N canvas 100 100 600 300 10;
#X obj 227 89 t b b b;
#X obj 146 63 metro 100;
#X obj 244 38 + 10;
#X obj 129 17 loadbang;
#X obj 263 335 noteout;
#X obj 295 146 random 80 120;
#X obj 200 146 random 62 73;
#X obj 227 222 makenote 500 1000;
#X obj 400 146 random 1000 2000;
#X connect 0 0 6 0;
#X connect 0 1 5 0;
#X connect 0 2 8 0;
#X connect 1 0 0 0;
#X connect 2 0 1 1;
#X connect 3 0 1 0;
#X connect 5 0 7 1;
#X connect 6 0 7 0;
#X connect 7 0 4 0;
#X connect 7 1 4 1;
#X connect 8 0 2 0;
