#N canvas 827 239 734 565 12;
#X obj 153 504 mtof;
#X obj 384 574 mtof;
#X obj 629 1082 dac~;
#X obj 229 189 r NOTE1;
#X obj 334 199 r NOTE2;
#X obj 143 350 unpack f f f;
#X obj 335 353 unpack f f f;
#X obj 384 634 osc~;
#X obj 233 700 *~;
#X obj 405 750 *~;
#X obj 620 590 mtof;
#X obj 571 369 unpack f f f;
#X obj 620 650 osc~;
#X obj 641 766 *~;
#X obj 570 215 r NOTE3;
#X obj 881 539 mtof;
#X obj 832 318 unpack f f f;
#X obj 881 599 osc~;
#X obj 902 715 *~;
#X obj 831 164 r NOTE4;
#X obj 553 904 +~;
#X obj 700 897 +~;
#X obj 113 567 osc~;
#X obj 666 1002 clip~ -0.5 0.5;
#X obj 912 367 / 127;
#X obj 954 477 pack f 5;
#X obj 982 577 line~;
#X obj 663 455 / 127;
#X obj 705 565 pack f 5;
#X obj 705 624 line~;
#X obj 462 465 / 127;
#X obj 504 575 pack f 5;
#X obj 532 675 line~;
#X obj 217 401 / 127;
#X obj 259 511 pack f 5;
#X obj 287 611 line~;
#X obj 233 464 * 0.7;
#X obj 478 528 * 0.7;
#X obj 679 518 * 0.7;
#X obj 928 430 * 0.7;
#X obj 245 790 *~ 0.25;
#X obj 433 821 *~ 0.25;
#X obj 582 803 *~ 0.25;
#X obj 812 833 *~ 0.25;
#X obj 641 949 *~ 0.6;
#X connect 0 0 22 0;
#X connect 1 0 7 0;
#X connect 3 0 5 0;
#X connect 4 0 6 0;
#X connect 5 0 0 0;
#X connect 5 1 33 0;
#X connect 6 0 1 0;
#X connect 6 1 30 0;
#X connect 7 0 9 0;
#X connect 8 0 40 0;
#X connect 9 0 41 0;
#X connect 10 0 12 0;
#X connect 11 0 10 0;
#X connect 11 1 27 0;
#X connect 12 0 13 0;
#X connect 13 0 42 0;
#X connect 14 0 11 0;
#X connect 15 0 17 0;
#X connect 16 0 15 0;
#X connect 16 1 24 0;
#X connect 17 0 18 0;
#X connect 18 0 43 0;
#X connect 19 0 16 0;
#X connect 20 0 44 0;
#X connect 21 0 44 0;
#X connect 22 0 8 0;
#X connect 23 0 2 0;
#X connect 23 0 2 1;
#X connect 24 0 39 0;
#X connect 25 0 26 0;
#X connect 26 0 18 1;
#X connect 27 0 38 0;
#X connect 28 0 29 0;
#X connect 29 0 13 1;
#X connect 30 0 37 0;
#X connect 31 0 32 0;
#X connect 32 0 9 1;
#X connect 33 0 36 0;
#X connect 34 0 35 0;
#X connect 35 0 8 1;
#X connect 36 0 34 0;
#X connect 37 0 31 0;
#X connect 38 0 28 0;
#X connect 39 0 25 0;
#X connect 40 0 20 0;
#X connect 41 0 20 1;
#X connect 42 0 21 0;
#X connect 43 0 21 1;
#X connect 44 0 23 0;
